<svg width="499" height="499" viewBox="0 0 499 499" fill="none" xmlns="http://www.w3.org/2000/svg">
<circle cx="249.5" cy="249.5" r="239.5" fill="#C2BCA2"/>
<g clip-path="url(#clip0_131_410)">
<path d="M249.227 249.5C259.831 249.5 270.197 246.356 279.014 240.464C287.831 234.573 294.703 226.199 298.761 216.403C302.819 206.606 303.881 195.826 301.812 185.425C299.743 175.025 294.637 165.472 287.139 157.974C279.641 150.475 270.087 145.369 259.687 143.3C249.287 141.231 238.507 142.293 228.71 146.351C218.913 150.409 210.539 157.281 204.648 166.098C198.757 174.915 195.612 185.281 195.612 195.885C195.626 210.1 201.28 223.729 211.331 233.781C221.383 243.833 235.012 249.486 249.227 249.5ZM249.227 160.142C256.297 160.142 263.207 162.238 269.085 166.166C274.963 170.093 279.544 175.675 282.25 182.207C284.955 188.738 285.663 195.925 284.284 202.858C282.905 209.792 279.5 216.161 274.502 221.159C269.503 226.158 263.134 229.562 256.2 230.942C249.267 232.321 242.08 231.613 235.549 228.908C229.018 226.202 223.435 221.621 219.508 215.743C215.58 209.865 213.484 202.954 213.484 195.885C213.484 186.405 217.25 177.314 223.953 170.611C230.656 163.908 239.748 160.142 249.227 160.142Z" fill="black" fill-opacity="0.6"/>
<path d="M249.228 267.371C227.906 267.395 207.464 275.876 192.387 290.953C177.31 306.03 168.829 326.472 168.806 347.794C168.806 350.164 169.747 352.437 171.423 354.112C173.099 355.788 175.372 356.73 177.741 356.73C180.111 356.73 182.384 355.788 184.06 354.112C185.736 352.437 186.677 350.164 186.677 347.794C186.677 331.204 193.267 315.294 204.998 303.564C216.729 291.833 232.639 285.243 249.228 285.243C265.818 285.243 281.728 291.833 293.458 303.564C305.189 315.294 311.779 331.204 311.779 347.794C311.779 350.164 312.72 352.437 314.396 354.112C316.072 355.788 318.345 356.73 320.715 356.73C323.085 356.73 325.358 355.788 327.033 354.112C328.709 352.437 329.651 350.164 329.651 347.794C329.627 326.472 321.146 306.03 306.069 290.953C290.992 275.876 270.55 267.395 249.228 267.371Z" fill="black" fill-opacity="0.6"/>
</g>
<defs>
<clipPath id="clip0_131_410">
<rect width="214.46" height="214.46" fill="white" transform="translate(142 142.27)"/>
</clipPath>
</defs>
</svg>
