<svg width="89" height="89" viewBox="0 0 89 89" fill="none" xmlns="http://www.w3.org/2000/svg">
<path fill-rule="evenodd" clip-rule="evenodd" d="M49.3194 22.4093C48.0903 17.3636 40.9097 17.3636 39.6806 22.4093C39.4971 23.1675 39.1372 23.8716 38.6301 24.4645C38.1231 25.0573 37.4832 25.522 36.7626 25.8209C36.042 26.1197 35.2611 26.2442 34.4833 26.1841C33.7055 26.1241 32.9528 25.8813 32.2866 25.4755C27.8489 22.7715 22.7708 27.8496 25.4748 32.2872C27.2214 35.1529 25.6721 38.8919 22.4118 39.6843C17.3627 40.9102 17.3627 48.0939 22.4118 49.3165C23.1702 49.5002 23.8745 49.8604 24.4673 50.3679C25.0601 50.8753 25.5247 51.5156 25.8233 52.2366C26.1218 52.9575 26.2459 53.7388 26.1853 54.5168C26.1248 55.2948 25.8813 56.0475 25.4748 56.7136C22.7708 61.1512 27.8489 66.2293 32.2866 63.5253C32.9527 63.1188 33.7054 62.8753 34.4834 62.8148C35.2614 62.7542 36.0427 62.8783 36.7637 63.1768C37.4847 63.4754 38.125 63.94 38.6324 64.5328C39.1399 65.1256 39.5001 65.8299 39.6839 66.5883C40.9097 71.6372 48.0935 71.6372 49.3161 66.5883C49.5005 65.8303 49.8611 65.1265 50.3687 64.5341C50.8762 63.9416 51.5164 63.4773 52.2371 63.1789C52.9579 62.8804 53.7389 62.7563 54.5167 62.8165C55.2945 62.8767 56.0471 63.1195 56.7134 63.5253C61.1511 66.2293 66.2292 61.1512 63.5252 56.7136C63.1194 56.0473 62.8765 55.2947 62.8163 54.517C62.7562 53.7392 62.8803 52.9582 63.1788 52.2374C63.4772 51.5167 63.9416 50.8765 64.534 50.369C65.1264 49.8614 65.8302 49.5008 66.5882 49.3165C71.6373 48.0906 71.6373 40.907 66.5882 39.6843C65.8298 39.5006 65.1255 39.1404 64.5327 38.6329C63.9399 38.1255 63.4753 37.4852 63.1767 36.7642C62.8782 36.0433 62.7541 35.262 62.8147 34.484C62.8752 33.706 63.1187 32.9533 63.5252 32.2872C66.2292 27.8496 61.1511 22.7715 56.7134 25.4755C56.0473 25.882 55.2946 26.1255 54.5166 26.186C53.7386 26.2466 52.9573 26.1225 52.2363 25.824C51.5153 25.5254 50.875 25.0608 50.3676 24.468C49.8601 23.8752 49.4999 23.1709 49.3161 22.4125L49.3194 22.4093Z" stroke="#C2BCA2" stroke-width="5"/>
<path d="M50.25 44.5C50.25 47.6756 47.6756 50.25 44.5 50.25C41.3244 50.25 38.75 47.6756 38.75 44.5C38.75 41.3244 41.3244 38.75 44.5 38.75C47.6756 38.75 50.25 41.3244 50.25 44.5Z" stroke="#C2BCA2" stroke-width="5"/>
</svg>
