<svg width="500" height="500" viewBox="0 0 500 500" fill="none" xmlns="http://www.w3.org/2000/svg">
<g clip-path="url(#clip0_238_112)">
<rect width="500" height="500" rx="250" fill="white"/>
<rect width="269" height="29" rx="14.5" fill="#77FF00"/>
<rect width="212.189" height="345.159" transform="translate(75.5928 -97.8571) rotate(34.7204)" fill="#77FF00"/>
<rect width="614" height="250" transform="translate(-57 250)" fill="#20272E"/>
<rect x="29" y="29" width="441" height="441" rx="220.5" fill="#20272E"/>
<path d="M176.186 249.9C171.053 249.9 166.419 248.833 162.286 246.7C158.153 244.633 154.986 241.767 152.786 238.1L161.686 228.2C163.619 230.6 165.853 232.5 168.386 233.9C170.986 235.233 173.619 235.9 176.286 235.9C178.353 235.9 180.153 235.5 181.686 234.7C183.219 233.833 184.419 232.667 185.286 231.2C186.153 229.733 186.586 228 186.586 226C186.586 224.133 186.186 222.467 185.386 221C184.586 219.533 183.486 218.433 182.086 217.7C180.686 216.9 179.053 216.5 177.186 216.5C175.386 216.5 173.686 216.9 172.086 217.7C170.553 218.5 169.353 219.633 168.486 221.1H154.586L162.886 177.9H198.186V192.5H174.486L172.486 204.6C172.886 204.133 173.653 203.733 174.786 203.4C175.986 203 177.553 202.8 179.486 202.8C184.086 202.8 188.153 203.767 191.686 205.7C195.219 207.633 197.986 210.333 199.986 213.8C201.986 217.267 202.986 221.233 202.986 225.7C202.986 230.5 201.819 234.7 199.486 238.3C197.219 241.967 194.086 244.8 190.086 246.8C186.086 248.867 181.453 249.9 176.186 249.9ZM262.648 205.7C262.648 211.567 261.514 216.8 259.248 221.4C256.981 225.933 253.881 229.5 249.948 232.1C246.014 234.7 241.548 236 236.548 236C231.614 236 227.148 234.7 223.148 232.1C219.214 229.5 216.114 225.933 213.848 221.4C211.581 216.8 210.448 211.567 210.448 205.7C210.448 199.833 211.581 194.633 213.848 190.1C216.114 185.5 219.214 181.9 223.148 179.3C227.148 176.633 231.614 175.3 236.548 175.3C241.548 175.3 246.014 176.633 249.948 179.3C253.881 181.9 256.981 185.5 259.248 190.1C261.514 194.633 262.648 199.833 262.648 205.7ZM246.548 205.7C246.548 202.567 246.114 199.833 245.248 197.5C244.381 195.167 243.181 193.333 241.648 192C240.181 190.667 238.481 190 236.548 190C234.548 190 232.781 190.667 231.248 192C229.714 193.333 228.514 195.167 227.648 197.5C226.848 199.833 226.448 202.567 226.448 205.7C226.448 208.833 226.848 211.567 227.648 213.9C228.514 216.233 229.714 218.067 231.248 219.4C232.781 220.667 234.548 221.3 236.548 221.3C238.481 221.3 240.181 220.667 241.648 219.4C243.181 218.067 244.381 216.233 245.248 213.9C246.114 211.567 246.548 208.833 246.548 205.7ZM287.773 193.9C284.573 193.9 281.673 193.233 279.073 191.9C276.54 190.5 274.507 188.633 272.973 186.3C271.44 183.9 270.673 181.267 270.673 178.4C270.673 175.533 271.44 172.933 272.973 170.6C274.507 168.267 276.54 166.433 279.073 165.1C281.673 163.7 284.573 163 287.773 163C290.973 163 293.873 163.7 296.473 165.1C299.073 166.433 301.107 168.267 302.573 170.6C304.107 172.933 304.873 175.533 304.873 178.4C304.873 181.267 304.107 183.9 302.573 186.3C301.107 188.633 299.073 190.5 296.473 191.9C293.873 193.233 290.973 193.9 287.773 193.9ZM287.773 186.1C288.907 186.1 289.907 185.767 290.773 185.1C291.707 184.367 292.44 183.433 292.973 182.3C293.507 181.1 293.773 179.833 293.773 178.5C293.773 177.033 293.507 175.733 292.973 174.6C292.44 173.467 291.707 172.567 290.773 171.9C289.84 171.167 288.84 170.8 287.773 170.8C286.707 170.8 285.707 171.167 284.773 171.9C283.84 172.567 283.107 173.467 282.573 174.6C282.04 175.733 281.773 177 281.773 178.4C281.773 179.8 282.04 181.1 282.573 182.3C283.107 183.433 283.84 184.367 284.773 185.1C285.707 185.767 286.707 186.1 287.773 186.1ZM328.373 236C325.173 236 322.273 235.333 319.673 234C317.14 232.6 315.107 230.733 313.573 228.4C312.04 226 311.273 223.4 311.273 220.6C311.273 217.667 312.04 215.033 313.573 212.7C315.107 210.367 317.14 208.533 319.673 207.2C322.273 205.8 325.173 205.1 328.373 205.1C331.573 205.1 334.473 205.8 337.073 207.2C339.673 208.533 341.707 210.367 343.173 212.7C344.707 215.033 345.473 217.633 345.473 220.5C345.473 223.367 344.707 226 343.173 228.4C341.707 230.733 339.673 232.6 337.073 234C334.473 235.333 331.573 236 328.373 236ZM328.373 228.2C329.507 228.2 330.54 227.867 331.473 227.2C332.407 226.467 333.14 225.533 333.673 224.4C334.207 223.2 334.473 221.933 334.473 220.6C334.473 219.133 334.173 217.833 333.573 216.7C333.04 215.567 332.307 214.667 331.373 214C330.44 213.267 329.473 212.9 328.473 212.9C327.34 212.9 326.307 213.267 325.373 214C324.44 214.667 323.707 215.567 323.173 216.7C322.64 217.833 322.373 219.1 322.373 220.5C322.373 221.9 322.64 223.2 323.173 224.4C323.707 225.533 324.44 226.467 325.373 227.2C326.307 227.867 327.307 228.2 328.373 228.2ZM277.573 229.4L305.873 197L331.473 163.1L338.573 169.5L311.273 201.1L284.673 235.9L277.573 229.4Z" fill="#C2BCA2"/>
<path d="M123.656 306.9C123.656 308.933 123.106 310.633 122.006 312C120.94 313.333 119.49 314.333 117.656 315C115.823 315.667 113.806 316 111.606 316H94.3063V280.5H114.056C115.723 280.5 117.156 280.95 118.356 281.85C119.59 282.717 120.523 283.85 121.156 285.25C121.823 286.65 122.156 288.1 122.156 289.6C122.156 291.267 121.723 292.867 120.856 294.4C119.99 295.9 118.723 297.033 117.056 297.8C119.09 298.4 120.69 299.467 121.856 301C123.056 302.533 123.656 304.5 123.656 306.9ZM115.306 305.25C115.306 304.483 115.156 303.817 114.856 303.25C114.556 302.65 114.156 302.183 113.656 301.85C113.19 301.483 112.623 301.3 111.956 301.3H102.506V309.05H111.606C112.306 309.05 112.923 308.883 113.456 308.55C114.023 308.217 114.473 307.767 114.806 307.2C115.14 306.633 115.306 305.983 115.306 305.25ZM102.506 287.5V294.85H110.556C111.156 294.85 111.706 294.717 112.206 294.45C112.74 294.183 113.173 293.783 113.506 293.25C113.84 292.683 114.006 291.983 114.006 291.15C114.006 290.35 113.856 289.683 113.556 289.15C113.29 288.617 112.923 288.217 112.456 287.95C111.99 287.65 111.456 287.5 110.856 287.5H102.506ZM127.886 316V289.75H135.886V297.6H140.136C143.303 297.6 145.736 298.433 147.436 300.1C149.169 301.733 150.036 303.883 150.036 306.55C150.036 308.417 149.669 310.067 148.936 311.5C148.236 312.933 147.186 314.05 145.786 314.85C144.386 315.617 142.669 316 140.636 316H127.886ZM135.886 309.95H139.336C140.069 309.95 140.669 309.817 141.136 309.55C141.636 309.25 142.003 308.85 142.236 308.35C142.469 307.817 142.586 307.233 142.586 306.6C142.586 305.967 142.469 305.417 142.236 304.95C142.003 304.45 141.636 304.05 141.136 303.75C140.669 303.45 140.053 303.3 139.286 303.3H135.886V309.95ZM153.986 316V289.75H161.986V316H153.986ZM167.583 316V289.75H192.133V316H184.133V296.75H175.583V316H167.583ZM210.16 316.5C207.927 316.5 205.927 316.133 204.16 315.4C202.427 314.667 200.96 313.667 199.76 312.4C198.56 311.133 197.643 309.683 197.01 308.05C196.41 306.417 196.11 304.7 196.11 302.9C196.11 301.067 196.41 299.333 197.01 297.7C197.643 296.067 198.56 294.617 199.76 293.35C200.96 292.083 202.427 291.083 204.16 290.35C205.927 289.617 207.927 289.25 210.16 289.25C212.393 289.25 214.377 289.617 216.11 290.35C217.843 291.083 219.31 292.083 220.51 293.35C221.71 294.617 222.627 296.067 223.26 297.7C223.893 299.333 224.21 301.067 224.21 302.9C224.21 304.7 223.893 306.417 223.26 308.05C222.627 309.683 221.71 311.133 220.51 312.4C219.31 313.667 217.843 314.667 216.11 315.4C214.377 316.133 212.393 316.5 210.16 316.5ZM204.31 302.9C204.31 304.267 204.56 305.467 205.06 306.5C205.593 307.533 206.293 308.333 207.16 308.9C208.027 309.467 209.027 309.75 210.16 309.75C211.26 309.75 212.243 309.467 213.11 308.9C214.01 308.3 214.71 307.483 215.21 306.45C215.71 305.417 215.96 304.233 215.96 302.9C215.96 301.533 215.71 300.333 215.21 299.3C214.71 298.267 214.01 297.467 213.11 296.9C212.243 296.333 211.26 296.05 210.16 296.05C209.027 296.05 208.027 296.333 207.16 296.9C206.293 297.467 205.593 298.267 205.06 299.3C204.56 300.333 204.31 301.533 204.31 302.9ZM226.478 316.4V309.3C227.278 309.3 227.978 309.133 228.578 308.8C229.178 308.467 229.694 307.917 230.128 307.15C230.594 306.383 230.961 305.283 231.228 303.85C231.494 302.417 231.678 300.583 231.778 298.35L232.128 289.75H252.878V316H244.878V296.75H239.228L239.128 299.2C238.961 302.533 238.594 305.317 238.028 307.55C237.494 309.75 236.711 311.5 235.678 312.8C234.644 314.067 233.378 314.983 231.878 315.55C230.378 316.117 228.578 316.4 226.478 316.4ZM258.501 316V289.75H266.501V299.25H275.451V289.75H283.451V316H275.451V305.85H266.501V316H258.501ZM301.568 316.5C299.334 316.5 297.351 316.15 295.618 315.45C293.884 314.717 292.401 313.733 291.168 312.5C289.968 311.267 289.051 309.85 288.418 308.25C287.784 306.617 287.468 304.917 287.468 303.15C287.468 300.617 288.018 298.317 289.118 296.25C290.251 294.15 291.868 292.467 293.968 291.2C296.068 289.9 298.601 289.25 301.568 289.25C304.534 289.25 307.051 289.883 309.118 291.15C311.218 292.417 312.818 294.083 313.918 296.15C315.018 298.183 315.568 300.4 315.568 302.8C315.568 303.267 315.534 303.733 315.468 304.2C315.434 304.633 315.401 305.017 315.368 305.35H295.968C296.068 306.517 296.384 307.5 296.918 308.3C297.484 309.1 298.201 309.717 299.068 310.15C299.934 310.55 300.851 310.75 301.818 310.75C303.018 310.75 304.134 310.467 305.168 309.9C306.234 309.333 306.968 308.567 307.368 307.6L314.168 309.5C313.501 310.867 312.551 312.083 311.318 313.15C310.118 314.183 308.684 315 307.018 315.6C305.384 316.2 303.568 316.5 301.568 316.5ZM295.768 300.45H307.168C307.034 299.35 306.718 298.4 306.218 297.6C305.718 296.767 305.051 296.133 304.218 295.7C303.384 295.233 302.468 295 301.468 295C300.434 295 299.501 295.233 298.668 295.7C297.868 296.133 297.218 296.767 296.718 297.6C296.218 298.4 295.901 299.35 295.768 300.45ZM319.243 316V289.75H327.243V299.25H336.193V289.75H344.193V316H336.193V305.85H327.243V316H319.243ZM349.81 316V289.75H357.81V299.25H366.76V289.75H374.76V316H366.76V305.85H357.81V316H349.81ZM392.826 316.5C390.593 316.5 388.593 316.133 386.826 315.4C385.093 314.667 383.626 313.667 382.426 312.4C381.226 311.133 380.31 309.683 379.676 308.05C379.076 306.417 378.776 304.7 378.776 302.9C378.776 301.067 379.076 299.333 379.676 297.7C380.31 296.067 381.226 294.617 382.426 293.35C383.626 292.083 385.093 291.083 386.826 290.35C388.593 289.617 390.593 289.25 392.826 289.25C395.06 289.25 397.043 289.617 398.776 290.35C400.51 291.083 401.976 292.083 403.176 293.35C404.376 294.617 405.293 296.067 405.926 297.7C406.56 299.333 406.876 301.067 406.876 302.9C406.876 304.7 406.56 306.417 405.926 308.05C405.293 309.683 404.376 311.133 403.176 312.4C401.976 313.667 400.51 314.667 398.776 315.4C397.043 316.133 395.06 316.5 392.826 316.5ZM386.976 302.9C386.976 304.267 387.226 305.467 387.726 306.5C388.26 307.533 388.96 308.333 389.826 308.9C390.693 309.467 391.693 309.75 392.826 309.75C393.926 309.75 394.91 309.467 395.776 308.9C396.676 308.3 397.376 307.483 397.876 306.45C398.376 305.417 398.626 304.233 398.626 302.9C398.626 301.533 398.376 300.333 397.876 299.3C397.376 298.267 396.676 297.467 395.776 296.9C394.91 296.333 393.926 296.05 392.826 296.05C391.693 296.05 390.693 296.333 389.826 296.9C388.96 297.467 388.26 298.267 387.726 299.3C387.226 300.333 386.976 301.533 386.976 302.9Z" fill="#C2BCA2"/>
</g>
<defs>
<clipPath id="clip0_238_112">
<rect width="500" height="500" rx="250" fill="white"/>
</clipPath>
</defs>
</svg>
