<svg width="500" height="500" viewBox="0 0 500 500" fill="none" xmlns="http://www.w3.org/2000/svg">
<g clip-path="url(#clip0_281_149)">
<rect width="500" height="500" rx="250" fill="white"/>
<rect width="614" height="250" transform="translate(-57 250)" fill="#20272E"/>
<rect x="29" y="29" width="441" height="441" rx="220.5" fill="#20272E"/>
<path d="M234.767 205.7C234.767 211.567 233.633 216.8 231.367 221.4C229.1 225.933 226 229.5 222.067 232.1C218.133 234.7 213.667 236 208.667 236C203.733 236 199.267 234.7 195.267 232.1C191.333 229.5 188.233 225.933 185.967 221.4C183.7 216.8 182.567 211.567 182.567 205.7C182.567 199.833 183.7 194.633 185.967 190.1C188.233 185.5 191.333 181.9 195.267 179.3C199.267 176.633 203.733 175.3 208.667 175.3C213.667 175.3 218.133 176.633 222.067 179.3C226 181.9 229.1 185.5 231.367 190.1C233.633 194.633 234.767 199.833 234.767 205.7ZM218.667 205.7C218.667 202.567 218.233 199.833 217.367 197.5C216.5 195.167 215.3 193.333 213.767 192C212.3 190.667 210.6 190 208.667 190C206.667 190 204.9 190.667 203.367 192C201.833 193.333 200.633 195.167 199.767 197.5C198.967 199.833 198.567 202.567 198.567 205.7C198.567 208.833 198.967 211.567 199.767 213.9C200.633 216.233 201.833 218.067 203.367 219.4C204.9 220.667 206.667 221.3 208.667 221.3C210.6 221.3 212.3 220.667 213.767 219.4C215.3 218.067 216.5 216.233 217.367 213.9C218.233 211.567 218.667 208.833 218.667 205.7ZM259.893 193.9C256.693 193.9 253.793 193.233 251.193 191.9C248.659 190.5 246.626 188.633 245.093 186.3C243.559 183.9 242.793 181.267 242.793 178.4C242.793 175.533 243.559 172.933 245.093 170.6C246.626 168.267 248.659 166.433 251.193 165.1C253.793 163.7 256.693 163 259.893 163C263.093 163 265.993 163.7 268.593 165.1C271.193 166.433 273.226 168.267 274.693 170.6C276.226 172.933 276.993 175.533 276.993 178.4C276.993 181.267 276.226 183.9 274.693 186.3C273.226 188.633 271.193 190.5 268.593 191.9C265.993 193.233 263.093 193.9 259.893 193.9ZM259.893 186.1C261.026 186.1 262.026 185.767 262.893 185.1C263.826 184.367 264.559 183.433 265.093 182.3C265.626 181.1 265.893 179.833 265.893 178.5C265.893 177.033 265.626 175.733 265.093 174.6C264.559 173.467 263.826 172.567 262.893 171.9C261.959 171.167 260.959 170.8 259.893 170.8C258.826 170.8 257.826 171.167 256.893 171.9C255.959 172.567 255.226 173.467 254.693 174.6C254.159 175.733 253.893 177 253.893 178.4C253.893 179.8 254.159 181.1 254.693 182.3C255.226 183.433 255.959 184.367 256.893 185.1C257.826 185.767 258.826 186.1 259.893 186.1ZM300.493 236C297.293 236 294.393 235.333 291.793 234C289.259 232.6 287.226 230.733 285.693 228.4C284.159 226 283.393 223.4 283.393 220.6C283.393 217.667 284.159 215.033 285.693 212.7C287.226 210.367 289.259 208.533 291.793 207.2C294.393 205.8 297.293 205.1 300.493 205.1C303.693 205.1 306.593 205.8 309.193 207.2C311.793 208.533 313.826 210.367 315.293 212.7C316.826 215.033 317.593 217.633 317.593 220.5C317.593 223.367 316.826 226 315.293 228.4C313.826 230.733 311.793 232.6 309.193 234C306.593 235.333 303.693 236 300.493 236ZM300.493 228.2C301.626 228.2 302.659 227.867 303.593 227.2C304.526 226.467 305.259 225.533 305.793 224.4C306.326 223.2 306.593 221.933 306.593 220.6C306.593 219.133 306.293 217.833 305.693 216.7C305.159 215.567 304.426 214.667 303.493 214C302.559 213.267 301.593 212.9 300.593 212.9C299.459 212.9 298.426 213.267 297.493 214C296.559 214.667 295.826 215.567 295.293 216.7C294.759 217.833 294.493 219.1 294.493 220.5C294.493 221.9 294.759 223.2 295.293 224.4C295.826 225.533 296.559 226.467 297.493 227.2C298.426 227.867 299.426 228.2 300.493 228.2ZM249.693 229.4L277.993 197L303.593 163.1L310.693 169.5L283.393 201.1L256.793 235.9L249.693 229.4Z" fill="#C2BCA2"/>
<path d="M123.656 306.9C123.656 308.933 123.106 310.633 122.006 312C120.94 313.333 119.49 314.333 117.656 315C115.823 315.667 113.806 316 111.606 316H94.3063V280.5H114.056C115.723 280.5 117.156 280.95 118.356 281.85C119.59 282.717 120.523 283.85 121.156 285.25C121.823 286.65 122.156 288.1 122.156 289.6C122.156 291.267 121.723 292.867 120.856 294.4C119.99 295.9 118.723 297.033 117.056 297.8C119.09 298.4 120.69 299.467 121.856 301C123.056 302.533 123.656 304.5 123.656 306.9ZM115.306 305.25C115.306 304.483 115.156 303.817 114.856 303.25C114.556 302.65 114.156 302.183 113.656 301.85C113.19 301.483 112.623 301.3 111.956 301.3H102.506V309.05H111.606C112.306 309.05 112.923 308.883 113.456 308.55C114.023 308.217 114.473 307.767 114.806 307.2C115.14 306.633 115.306 305.983 115.306 305.25ZM102.506 287.5V294.85H110.556C111.156 294.85 111.706 294.717 112.206 294.45C112.74 294.183 113.173 293.783 113.506 293.25C113.84 292.683 114.006 291.983 114.006 291.15C114.006 290.35 113.856 289.683 113.556 289.15C113.29 288.617 112.923 288.217 112.456 287.95C111.99 287.65 111.456 287.5 110.856 287.5H102.506ZM127.886 316V289.75H135.886V297.6H140.136C143.303 297.6 145.736 298.433 147.436 300.1C149.169 301.733 150.036 303.883 150.036 306.55C150.036 308.417 149.669 310.067 148.936 311.5C148.236 312.933 147.186 314.05 145.786 314.85C144.386 315.617 142.669 316 140.636 316H127.886ZM135.886 309.95H139.336C140.069 309.95 140.669 309.817 141.136 309.55C141.636 309.25 142.003 308.85 142.236 308.35C142.469 307.817 142.586 307.233 142.586 306.6C142.586 305.967 142.469 305.417 142.236 304.95C142.003 304.45 141.636 304.05 141.136 303.75C140.669 303.45 140.053 303.3 139.286 303.3H135.886V309.95ZM153.986 316V289.75H161.986V316H153.986ZM167.583 316V289.75H192.133V316H184.133V296.75H175.583V316H167.583ZM210.16 316.5C207.927 316.5 205.927 316.133 204.16 315.4C202.427 314.667 200.96 313.667 199.76 312.4C198.56 311.133 197.643 309.683 197.01 308.05C196.41 306.417 196.11 304.7 196.11 302.9C196.11 301.067 196.41 299.333 197.01 297.7C197.643 296.067 198.56 294.617 199.76 293.35C200.96 292.083 202.427 291.083 204.16 290.35C205.927 289.617 207.927 289.25 210.16 289.25C212.393 289.25 214.377 289.617 216.11 290.35C217.843 291.083 219.31 292.083 220.51 293.35C221.71 294.617 222.627 296.067 223.26 297.7C223.893 299.333 224.21 301.067 224.21 302.9C224.21 304.7 223.893 306.417 223.26 308.05C222.627 309.683 221.71 311.133 220.51 312.4C219.31 313.667 217.843 314.667 216.11 315.4C214.377 316.133 212.393 316.5 210.16 316.5ZM204.31 302.9C204.31 304.267 204.56 305.467 205.06 306.5C205.593 307.533 206.293 308.333 207.16 308.9C208.027 309.467 209.027 309.75 210.16 309.75C211.26 309.75 212.243 309.467 213.11 308.9C214.01 308.3 214.71 307.483 215.21 306.45C215.71 305.417 215.96 304.233 215.96 302.9C215.96 301.533 215.71 300.333 215.21 299.3C214.71 298.267 214.01 297.467 213.11 296.9C212.243 296.333 211.26 296.05 210.16 296.05C209.027 296.05 208.027 296.333 207.16 296.9C206.293 297.467 205.593 298.267 205.06 299.3C204.56 300.333 204.31 301.533 204.31 302.9ZM226.478 316.4V309.3C227.278 309.3 227.978 309.133 228.578 308.8C229.178 308.467 229.694 307.917 230.128 307.15C230.594 306.383 230.961 305.283 231.228 303.85C231.494 302.417 231.678 300.583 231.778 298.35L232.128 289.75H252.878V316H244.878V296.75H239.228L239.128 299.2C238.961 302.533 238.594 305.317 238.028 307.55C237.494 309.75 236.711 311.5 235.678 312.8C234.644 314.067 233.378 314.983 231.878 315.55C230.378 316.117 228.578 316.4 226.478 316.4ZM258.501 316V289.75H266.501V299.25H275.451V289.75H283.451V316H275.451V305.85H266.501V316H258.501ZM301.568 316.5C299.334 316.5 297.351 316.15 295.618 315.45C293.884 314.717 292.401 313.733 291.168 312.5C289.968 311.267 289.051 309.85 288.418 308.25C287.784 306.617 287.468 304.917 287.468 303.15C287.468 300.617 288.018 298.317 289.118 296.25C290.251 294.15 291.868 292.467 293.968 291.2C296.068 289.9 298.601 289.25 301.568 289.25C304.534 289.25 307.051 289.883 309.118 291.15C311.218 292.417 312.818 294.083 313.918 296.15C315.018 298.183 315.568 300.4 315.568 302.8C315.568 303.267 315.534 303.733 315.468 304.2C315.434 304.633 315.401 305.017 315.368 305.35H295.968C296.068 306.517 296.384 307.5 296.918 308.3C297.484 309.1 298.201 309.717 299.068 310.15C299.934 310.55 300.851 310.75 301.818 310.75C303.018 310.75 304.134 310.467 305.168 309.9C306.234 309.333 306.968 308.567 307.368 307.6L314.168 309.5C313.501 310.867 312.551 312.083 311.318 313.15C310.118 314.183 308.684 315 307.018 315.6C305.384 316.2 303.568 316.5 301.568 316.5ZM295.768 300.45H307.168C307.034 299.35 306.718 298.4 306.218 297.6C305.718 296.767 305.051 296.133 304.218 295.7C303.384 295.233 302.468 295 301.468 295C300.434 295 299.501 295.233 298.668 295.7C297.868 296.133 297.218 296.767 296.718 297.6C296.218 298.4 295.901 299.35 295.768 300.45ZM319.243 316V289.75H327.243V299.25H336.193V289.75H344.193V316H336.193V305.85H327.243V316H319.243ZM349.81 316V289.75H357.81V299.25H366.76V289.75H374.76V316H366.76V305.85H357.81V316H349.81ZM392.826 316.5C390.593 316.5 388.593 316.133 386.826 315.4C385.093 314.667 383.626 313.667 382.426 312.4C381.226 311.133 380.31 309.683 379.676 308.05C379.076 306.417 378.776 304.7 378.776 302.9C378.776 301.067 379.076 299.333 379.676 297.7C380.31 296.067 381.226 294.617 382.426 293.35C383.626 292.083 385.093 291.083 386.826 290.35C388.593 289.617 390.593 289.25 392.826 289.25C395.06 289.25 397.043 289.617 398.776 290.35C400.51 291.083 401.976 292.083 403.176 293.35C404.376 294.617 405.293 296.067 405.926 297.7C406.56 299.333 406.876 301.067 406.876 302.9C406.876 304.7 406.56 306.417 405.926 308.05C405.293 309.683 404.376 311.133 403.176 312.4C401.976 313.667 400.51 314.667 398.776 315.4C397.043 316.133 395.06 316.5 392.826 316.5ZM386.976 302.9C386.976 304.267 387.226 305.467 387.726 306.5C388.26 307.533 388.96 308.333 389.826 308.9C390.693 309.467 391.693 309.75 392.826 309.75C393.926 309.75 394.91 309.467 395.776 308.9C396.676 308.3 397.376 307.483 397.876 306.45C398.376 305.417 398.626 304.233 398.626 302.9C398.626 301.533 398.376 300.333 397.876 299.3C397.376 298.267 396.676 297.467 395.776 296.9C394.91 296.333 393.926 296.05 392.826 296.05C391.693 296.05 390.693 296.333 389.826 296.9C388.96 297.467 388.26 298.267 387.726 299.3C387.226 300.333 386.976 301.533 386.976 302.9Z" fill="#C2BCA2"/>
</g>
<defs>
<clipPath id="clip0_281_149">
<rect width="500" height="500" rx="250" fill="white"/>
</clipPath>
</defs>
</svg>
