<svg width="73" height="73" viewBox="0 0 73 73" fill="none" xmlns="http://www.w3.org/2000/svg">
<rect x="1.5" y="1.5" width="70" height="70" rx="35" fill="#232C33"/>
<rect x="1.5" y="1.5" width="70" height="70" rx="35" stroke="#C2BCA2" stroke-width="3"/>
<path d="M55.6314 51.4526C55.6314 51.4526 53.0727 53.9657 52.4457 54.7025C51.4242 55.7925 50.2207 56.3072 48.643 56.3072C48.4913 56.3072 48.3295 56.3072 48.1778 56.2971C45.1741 56.1054 42.3828 54.9346 40.2893 53.9354C34.565 51.17 29.5386 47.2439 25.3617 42.2681C21.913 38.12 19.6072 34.2847 18.08 30.1668C17.1395 27.6537 16.7956 25.6957 16.9473 23.8487C17.0485 22.6678 17.5036 21.6888 18.343 20.8511L21.7917 17.4095C22.2872 16.9452 22.8131 16.6929 23.3289 16.6929C23.9661 16.6929 24.4819 17.0764 24.8055 17.3994C24.8156 17.4095 24.8257 17.4196 24.8358 17.4296C25.4528 18.0049 26.0394 18.6004 26.6563 19.2363C26.9698 19.5592 27.2934 19.8822 27.6171 20.2153L30.378 22.9706C31.4501 24.0405 31.4501 25.0296 30.378 26.0994C30.0848 26.3921 29.8016 26.6848 29.5083 26.9674C28.6587 27.8354 29.3261 27.1694 28.4462 27.9566C28.426 27.9768 28.4058 27.9869 28.3957 28.0071C27.5259 28.8751 27.6877 29.7228 27.8698 30.2981C27.8799 30.3284 27.89 30.3587 27.9001 30.389C28.6182 32.1249 29.6295 33.76 31.1668 35.7079L31.1769 35.718C33.9682 39.1496 36.9112 41.8242 40.1577 43.873C40.5723 44.1354 40.9971 44.3474 41.4016 44.5492C41.7657 44.7309 42.1096 44.9025 42.4029 45.0841C42.4433 45.1043 42.4838 45.1346 42.5242 45.1548C42.8681 45.3264 43.1917 45.4071 43.5255 45.4071C44.3649 45.4071 44.8908 44.8823 45.0627 44.7107L47.0451 42.7324C47.3889 42.3892 47.9351 41.9754 48.5722 41.9754C49.1993 41.9754 49.7151 42.369 50.0286 42.7122C50.0387 42.7223 50.0387 42.7223 50.0488 42.7324L55.6213 48.2935C56.663 49.323 55.6314 51.4526 55.6314 51.4526Z" stroke="#C2BCA2" stroke-width="5" stroke-linecap="round" stroke-linejoin="round"/>
</svg>
