<svg width="127" height="127" viewBox="0 0 127 127" fill="none" xmlns="http://www.w3.org/2000/svg">
<path d="M63.5 114.5C35.3335 114.5 12.5 91.6665 12.5 63.5C12.5 35.3335 35.3335 12.5 63.5 12.5C91.6665 12.5 114.5 35.3335 114.5 63.5C114.5 91.6665 91.6665 114.5 63.5 114.5Z" stroke="#C2BCA2" stroke-width="5"/>
<path d="M88.7686 83.2487C88.7686 83.2487 85.3892 86.5679 84.5611 87.541C83.2119 88.9806 81.6224 89.6605 79.5387 89.6605C79.3383 89.6605 79.1246 89.6605 78.9242 89.6471C74.957 89.3939 71.2704 87.8476 68.5054 86.5279C60.9451 82.8754 54.3064 77.69 48.7898 71.1182C44.2349 65.6395 41.1894 60.5741 39.1724 55.1354C37.9302 51.8162 37.476 49.2301 37.6764 46.7907C37.81 45.2311 38.4111 43.938 39.5197 42.8316L44.0746 38.286C44.7291 37.6729 45.4237 37.3396 46.1049 37.3396C46.9465 37.3396 47.6277 37.8461 48.0551 38.2727C48.0685 38.286 48.0818 38.2994 48.0952 38.3127C48.91 39.0725 49.6847 39.859 50.4995 40.6988C50.9136 41.1254 51.3411 41.5519 51.7685 41.9918L55.4151 45.631C56.831 47.044 56.831 48.3503 55.4151 49.7633C55.0277 50.1499 54.6537 50.5365 54.2663 50.9097C53.1443 52.0561 54.0257 51.1765 52.8636 52.2162C52.8369 52.2429 52.8102 52.2562 52.7969 52.2829C51.6481 53.4293 51.8618 54.549 52.1023 55.3088C52.1156 55.3488 52.129 55.3888 52.1423 55.4288C53.0907 57.7216 54.4265 59.8811 56.4568 62.4538L56.4702 62.4671C60.1568 66.9994 64.0438 70.5319 68.3316 73.2379C68.8792 73.5845 69.4402 73.8644 69.9745 74.131C70.4554 74.371 70.9096 74.5976 71.2969 74.8375C71.3504 74.8642 71.4038 74.9042 71.4572 74.9308C71.9114 75.1574 72.3388 75.2641 72.7796 75.2641C73.8883 75.2641 74.5829 74.5709 74.8099 74.3443L77.4282 71.7314C77.8823 71.2782 78.6036 70.7316 79.4452 70.7316C80.2733 70.7316 80.9545 71.2515 81.3686 71.7047C81.382 71.7181 81.382 71.7181 81.3953 71.7314L88.7553 79.0763C90.1311 80.436 88.7686 83.2487 88.7686 83.2487Z" stroke="#C2BCA2" stroke-width="7" stroke-linecap="round" stroke-linejoin="round"/>
</svg>
